<?xml version="1.0" encoding="UTF-8"?>
<svg version="1.1" xmlns="http://www.w3.org/2000/svg" width="1248" height="1248">
<path d="M0 0 C8.55098084 6.36352062 9.05236062 18.65269584 10.8125 28.4375 C11.07484636 29.87311069 11.33755039 31.30865605 11.60058594 32.74414062 C12.14441124 35.72043344 12.68353527 38.69752789 13.21923828 41.67529297 C13.92387624 45.58928676 14.64648716 49.49980653 15.37109375 53.41015625 C28.49053518 125.0621289 38.39056988 197.3717842 44 270 C44.09194641 271.18376221 44.18389282 272.36752441 44.27862549 273.5871582 C51.66301821 370.21905927 50.02004247 470.33215847 -77.55810547 811.11254883 C-78.76773791 812.69596711 -79.89470866 814.34206298 -81 816 C-81.66 816 -82.32 816 -83 816 C-83.268125 816.804375 -83.53625 817.60875 -83.8125 818.4375 C-84.4003125 819.7059375 -84.4003125 819.7059375 -85 821 C-85.99 821.33 -86.98 821.66 -88 822 C-88.70938944 823.31110215 -89.37201828 824.64801583 -90 826 C-91.36938477 827.67236328 -91.36938477 827.67236328 -92.94140625 829.3203125 C-93.52067871 829.93326172 -94.09995117 830.54621094 -94.69677734 831.17773438 C-95.31246582 831.82033203 -95.9281543 832.46292969 -96.5625 833.125 C-97.83806138 834.4705756 -99.1128008 835.81693088 -100.38671875 837.1640625 C-101.00724121 837.81922852 -101.62776367 838.47439453 -102.26708984 839.14941406 C-104.52035182 841.55568706 -106.69945763 844.02346316 -108.875 846.5 C-112.05521886 850.06231539 -115.38891105 853.2160101 -119.0390625 856.2890625 C-121.11609272 858.10129205 -123.01926282 860.02110709 -124.9375 862 C-128.3296153 865.45221183 -131.93058018 868.39309655 -135.82421875 871.26171875 C-138.11319443 873.02299374 -138.11319443 873.02299374 -140.38671875 875.3984375 C-143.14236467 878.14172626 -146.05870709 880.55891937 -149.125 882.9375 C-149.71901611 883.4005957 -150.31303223 883.86369141 -150.92504883 884.34082031 C-162.60172764 893.38678493 -174.37966331 902.30641427 -187 910 C-188.16149722 910.73616978 -189.32154927 911.4746226 -190.48046875 912.21484375 C-205.8614815 922.00687721 -221.63421553 931.1203267 -238.05810547 939.05102539 C-240.29626086 940.14477822 -242.51601152 941.27277224 -244.73828125 942.3984375 C-279.1126048 959.60022941 -315.89247156 972.21221714 -353 982 C-353.98000977 982.2587793 -354.96001953 982.51755859 -355.96972656 982.78417969 C-406.01837475 995.88148762 -457.33594929 1004.16305187 -509 1007 C-510.5080169 1007.08897807 -512.0159901 1007.17869888 -513.52392578 1007.26904297 C-530.78300889 1008.2974478 -548.0568938 1009.18929732 -565.34881592 1009.35247803 C-566.7493334 1009.36714084 -568.1498034 1009.38817444 -569.55010986 1009.41656494 C-583.02407566 1009.66773029 -598.25532411 1007.93399903 -609 999 C-623.39084373 984.24088665 -628.12592351 960.65275632 -633.35644531 941.36474609 C-633.91892976 939.29789314 -634.50081467 937.23633971 -635.0859375 935.17578125 C-640.51668795 915.08200457 -643.40673144 894.0864147 -644.83691406 873.34472656 C-644.98505902 871.21481014 -645.15679203 869.08842243 -645.3359375 866.9609375 C-647.85448335 832.99460293 -645.80845682 798.50878711 -640 765 C-639.81566406 763.91912109 -639.63132812 762.83824219 -639.44140625 761.72460938 C-632.32163382 720.60178585 -619.65267958 678.48895084 -600.24609375 641.40234375 C-598.75594601 638.52948839 -597.30071633 635.63982211 -595.84375 632.75 C-588.55276515 618.37429179 -580.77561512 604.51942843 -572 591 C-571.56768066 590.32614258 -571.13536133 589.65228516 -570.68994141 588.95800781 C-558.6131438 570.16124955 -545.16239024 551.67604899 -530.03515625 535.21484375 C-528.21532831 533.23434003 -526.44433669 531.22373723 -524.6875 529.1875 C-516.83637014 520.20967041 -508.66728761 511.57267161 -500.25 503.125 C-499.55342285 502.42383057 -498.8568457 501.72266113 -498.13916016 501.00024414 C-494.15235183 497.02524228 -490.06276327 493.22973353 -485.79882812 489.55371094 C-482.76816037 486.93601691 -479.83254056 484.21210605 -476.8828125 481.50390625 C-475 480 -475 480 -473 480 C-472.67 479.01 -472.34 478.02 -472 477 C-470.33333333 476.33333333 -468.66666667 475.66666667 -467 475 C-466.67 474.01 -466.34 473.02 -466 472 C-464.44018555 470.61645508 -464.44018555 470.61645508 -462.44921875 469.20703125 C-461.72524902 468.68447754 -461.0012793 468.16192383 -460.25537109 467.62353516 C-459.1389624 466.81988525 -459.1389624 466.81988525 -458 466 C-456.64781569 464.9681465 -455.30007822 463.93043753 -453.95703125 462.88671875 C-445.46652622 456.3266117 -436.90703877 449.98810558 -428 444 C-427.40477539 443.5968457 -426.80955078 443.19369141 -426.19628906 442.77832031 C-399.31908951 424.57569844 -370.99408576 407.93025216 -341.20898438 394.97753906 C-338.0415317 393.57585024 -334.93266335 392.06661462 -331.8125 390.5625 C-296.43701185 373.84167291 -258.5466962 362.64648198 -221 352 C-249.80059218 355.63871389 -278.44071081 359.78700389 -307 365 C-308.16311707 365.21109406 -308.16311707 365.21109406 -309.34973145 365.42645264 C-361.09373549 374.82887315 -412.76084308 387.41769662 -461.65380859 407.06005859 C-464.15521158 408.06218154 -466.66469838 409.0419341 -469.17578125 410.01953125 C-478.62605222 413.71888471 -487.89725394 417.65686376 -497.03808594 422.06396484 C-499.16526628 423.07884904 -501.30390625 424.06628463 -503.4453125 425.05078125 C-518.77144552 432.1336988 -533.65603589 440.08529333 -548 449 C-549.1482249 449.69696496 -550.29668328 450.39354534 -551.4453125 451.08984375 C-566.67162578 460.38847379 -581.37854499 470.46552244 -595 482 C-596.68396158 483.33779947 -598.37146955 484.6711471 -600.0625 486 C-604.35721492 489.42627336 -608.4548109 493.02688413 -612.51171875 496.73046875 C-614.12763363 498.20432518 -615.75471234 499.6660675 -617.39453125 501.11328125 C-626.54778858 509.20186244 -635.44447991 517.73833165 -643.34375 527.0703125 C-644.54241649 528.46687204 -645.77652355 529.8332695 -647.03125 531.1796875 C-652.31817883 536.85755121 -656.93069768 542.82437085 -661.37011719 549.17407227 C-662.53450122 550.81600596 -663.76200707 552.41282958 -665 554 C-665.66 554 -666.32 554 -667 554 C-667.25386475 554.71881348 -667.50772949 555.43762695 -667.76928711 556.17822266 C-669.09236857 559.21178256 -670.69516321 561.51274034 -672.69140625 564.1484375 C-690.49348537 588.15979844 -705.39051026 615.88435525 -716.14941406 643.79541016 C-717.05652197 646.14649638 -717.99250245 648.48497143 -718.9296875 650.82421875 C-745.43997104 717.82140591 -754.68315859 789.36857262 -756 861 C-756.01659668 861.78987305 -756.03319336 862.57974609 -756.05029297 863.39355469 C-756.39795314 881.84100432 -755.70419872 900.53417712 -754.4375 918.9375 C-753.70235065 929.9417669 -753.91362369 940.97705449 -754 952 C-759.609375 953.125 -759.609375 953.125 -763.125 952 C-768.62836151 948.1715746 -770.44122879 942.25779536 -772.125 936 C-774.40512176 927.85079517 -776.95144497 919.79857746 -779.5625 911.75 C-779.99083453 910.42636078 -780.41913809 909.10271154 -780.84741211 907.77905273 C-782.98442653 901.18117694 -785.13387982 894.58740968 -787.29075623 887.9960022 C-795.83658603 861.87559452 -803.94721885 835.8332835 -810 809 C-810.21897949 808.03690918 -810.43795898 807.07381836 -810.66357422 806.08154297 C-818.87782841 769.57443748 -823.19657064 732.40633187 -824 695 C-824.03287109 693.59355225 -824.03287109 693.59355225 -824.06640625 692.15869141 C-825.58354501 616.54196718 -811.45175357 538.29424512 -776.02880859 470.96777344 C-774.90245333 468.8134252 -773.8044251 466.64579758 -772.70703125 464.4765625 C-761.65258644 442.81278843 -747.96815327 423.10669896 -733 404 C-732.34515625 403.16082031 -731.6903125 402.32164062 -731.015625 401.45703125 C-721.69515802 389.65239023 -711.83457789 378.49513696 -701.16333008 367.90258789 C-699.42745269 366.17751523 -697.7026491 364.44188009 -695.97851562 362.70507812 C-689.29227469 356.01075836 -682.42460233 349.87525193 -675 344 C-673.78503539 342.98420492 -672.57457079 341.96297302 -671.37109375 340.93359375 C-670.40300781 340.10988281 -669.43492187 339.28617188 -668.4375 338.4375 C-667.44621094 337.59058594 -666.45492187 336.74367188 -665.43359375 335.87109375 C-663 334 -663 334 -661 334 C-661 333.34 -661 332.68 -661 332 C-658.92849007 330.37303308 -656.85608155 328.86293187 -654.6875 327.375 C-653.50338356 326.55022908 -652.31980788 325.72468137 -651.13671875 324.8984375 C-650.48960937 324.44887695 -649.8425 323.99931641 -649.17578125 323.53613281 C-646.66989591 321.76694177 -644.20171165 319.95005862 -641.73046875 318.1328125 C-636.14846078 314.06296805 -630.42465835 310.25102038 -624.625 306.5 C-623.11075439 305.51737183 -623.11075439 305.51737183 -621.56591797 304.51489258 C-588.73768937 283.26766015 -554.43413869 263.99883348 -519.01464844 247.42285156 C-515.71008487 245.86316607 -512.42052083 244.27458748 -509.1328125 242.6796875 C-507.95662354 242.10943848 -506.78043457 241.53918945 -505.56860352 240.95166016 C-503.3234289 239.86198206 -501.07904925 238.77066356 -498.83569336 237.67724609 C-491.0331486 233.90164706 -483.13778407 230.39047737 -475.18478394 226.94830322 C-472.12563748 225.62048384 -469.07261225 224.27886312 -466.01937866 222.93751526 C-433.3526109 208.58843555 -433.3526109 208.58843555 -419.23828125 203.07421875 C-414.85991931 201.35785825 -410.51222355 199.57006856 -406.16796875 197.76953125 C-405.46024826 197.47622421 -404.75252777 197.18291718 -404.02336121 196.88072205 C-402.55398079 196.27160189 -401.08461561 195.66244498 -399.61526489 195.05325317 C-387.68435638 190.10968435 -375.72333776 185.28621134 -363.65063477 180.69677734 C-349.70465119 175.38786309 -335.8787675 169.77758905 -322.03469849 164.20956421 C-320.04170975 163.40837046 -318.04824526 162.60837042 -316.0546875 161.80859375 C-314.87503418 161.33478271 -313.69538086 160.86097168 -312.47998047 160.37280273 C-308.93832127 158.97566862 -305.38226995 157.63591568 -301.8125 156.3125 C-261.81514494 141.40637702 -222.3697342 124.95931752 -183.22247314 107.96411133 C-181.14898445 107.06462962 -179.0744999 106.16750052 -176.99951172 105.27148438 C-165.81159773 100.43558345 -154.72185372 95.5154687 -143.875 89.953125 C-140.3058792 88.13161718 -136.68427458 86.43770199 -133.04956055 84.75170898 C-122.74876171 79.96486107 -112.84199452 74.66419911 -103 69 C-102.03271973 68.44586426 -101.06543945 67.89172852 -100.06884766 67.32080078 C-83.20127301 57.69073495 -83.20127301 57.69073495 -67 47 C-66.32275879 46.52208008 -65.64551758 46.04416016 -64.94775391 45.55175781 C-55.70083005 39.01352883 -46.58539867 32.39643847 -38 25 C-37.20980469 24.32066406 -36.41960938 23.64132813 -35.60546875 22.94140625 C-31.77230195 19.56648556 -28.0789859 16.1106223 -24.54296875 12.42578125 C-23.93622314 11.79889404 -23.32947754 11.17200684 -22.7043457 10.52612305 C-21.51515548 9.29027301 -20.33716685 8.04351081 -19.17260742 6.78442383 C-14.00802475 1.420251 -7.65884325 -2.72314427 0 0 Z " fill="#A3D922" transform="translate(1143,206)"/>
<path d="M0 0 C37.95452273 -2.96472197 37.95452273 -2.96472197 54.73828125 11.17578125 C55.48158691 11.84432129 56.22489258 12.51286133 56.99072266 13.20166016 C59.45958943 15.41134092 62.0907595 17.3019811 64.8125 19.1875 C65.61171875 19.77789063 66.4109375 20.36828125 67.234375 20.9765625 C70.97919711 23.71641822 74.77005435 26.38910987 78.5625 29.0625 C79.30685303 29.58755127 80.05120605 30.11260254 80.81811523 30.65356445 C84.4931292 33.24304842 88.17774139 35.81735175 91.875 38.375 C104.90302357 47.4813226 117.56098478 57.13463549 130.25976562 66.69189453 C132.73165766 68.54997499 135.21025532 70.39906436 137.6875 72.25 C144.45251142 77.31907365 151.16575104 82.45626247 157.87963867 87.59277344 C158.75595947 88.26211914 159.63228027 88.93146484 160.53515625 89.62109375 C161.322854 90.2236499 162.11055176 90.82620605 162.92211914 91.44702148 C164.57684968 92.68374349 166.28113342 93.85408894 168 95 C168 95.66 168 96.32 168 97 C168.69996094 97.22558594 169.39992188 97.45117188 170.12109375 97.68359375 C173.61831572 99.28273053 176.22007306 101.53249405 179.0625 104.0625 C184.45298477 108.7638758 190.01607287 113.06195123 195.83203125 117.22265625 C196.54746094 117.80917969 197.26289063 118.39570312 198 119 C198 119.66 198 120.32 198 121 C198.71929687 121.23589844 199.43859375 121.47179687 200.1796875 121.71484375 C203.47509326 123.21648986 205.50689475 125.06553097 208.125 127.5625 C211.84646533 131.03919781 215.59371692 134.36495561 219.5625 137.5625 C224.00348074 141.14678091 228.24249742 144.89617412 232.45703125 148.7421875 C235.13777224 151.12232313 237.89504134 153.37731841 240.6875 155.625 C244.47047411 158.68538355 247.96241355 161.84295315 251.34375 165.3359375 C253.68935155 167.6926032 256.20315883 169.83179003 258.71875 172.00390625 C263.02163993 175.76893494 267.2070455 179.6640052 271.41015625 183.53955078 C272.95508255 184.9587383 274.50760666 186.36909157 276.0625 187.77734375 C283.28952218 194.34943125 290.23987912 201.15937285 297.08862305 208.12548828 C299.99815982 211.07116623 302.85577799 213.882234 306.06640625 216.50390625 C309.09085559 219.07730589 311.51936774 221.82090221 314.08984375 224.83203125 C317.53460384 228.74172828 321.2860047 232.34832006 325 236 C329.98235972 240.89876308 334.82747404 245.82833961 339.3828125 251.12890625 C341.85136184 253.98502977 344.4265424 256.73867702 347 259.5 C350.73654274 263.53157836 354.45014958 267.57334842 358.04296875 271.734375 C359.66115891 273.60772888 361.29059452 275.46965354 362.92578125 277.328125 C369.37029508 284.67635447 375.58875046 292.14283075 381.5625 299.87890625 C383.27288553 302.06896721 385.00170035 304.17597688 386.8125 306.27734375 C389 309 389 309 389 311 C389.66 311 390.32 311 391 311 C392.62890625 312.984375 392.62890625 312.984375 394.5625 315.75 C397.40157643 319.75630893 400.27787574 323.71630471 403.25 327.625 C408.05474068 334.01189099 412.68138911 340.51784413 417.24609375 347.078125 C418.82113412 349.34087413 420.41856183 351.54561132 422.09765625 353.734375 C425.5825883 358.38095106 426.6587221 361.81034591 426.6015625 367.640625 C425.73934892 371.02229386 424.51416494 372.5519973 422 375 C419.11032751 376.63562039 416.08321207 377.83996653 413 379.0625 C411.10903593 379.84162549 409.21843 380.62162059 407.328125 381.40234375 C406.31169922 381.81726074 405.29527344 382.23217773 404.24804688 382.65966797 C398.38582111 385.07876143 392.57256071 387.61231578 386.75 390.125 C379.02722457 393.44523201 371.2926615 396.72235412 363.5 399.875 C357.92667044 402.13597343 352.55239685 404.65338083 347.20703125 407.41015625 C343.27408166 409.35986451 339.27124978 411.11662985 335.25 412.875 C327.33689256 416.34801637 319.60822331 420.10654331 311.91064453 424.03076172 C309.50407053 425.25157679 307.08516381 426.44715642 304.66625977 427.64331055 C278.22794166 440.7527887 252.11993117 454.48758929 227 470 C226.30052246 470.43070801 225.60104492 470.86141602 224.88037109 471.30517578 C205.9762477 482.98500305 187.59070091 495.41730689 170 509 C169.40815918 509.45294434 168.81631836 509.90588867 168.20654297 510.37255859 C160.72192772 516.10506066 153.49829401 522.0779489 146.40966797 528.29345703 C142.68968177 531.55319854 138.92012517 534.71680908 135.0625 537.8125 C131.17075769 540.96158735 127.58991176 544.25184944 124.14453125 547.8828125 C122.28105917 549.72252446 120.37557116 551.41618769 118.390625 553.12109375 C113.34685115 557.50141242 108.64870402 562.20499438 103.9375 566.9375 C103.07833984 567.79279297 102.21917969 568.64808594 101.33398438 569.52929688 C96.8833968 573.98668443 92.5768452 578.50753192 88.47290039 583.28637695 C86.615939 585.44682979 84.68280407 587.53239717 82.75 589.625 C77.62231487 595.3030159 72.96451285 601.31312441 68.28271484 607.35742188 C66.4690775 609.67987183 64.6086654 611.963518 62.75 614.25 C59.56118145 618.22465774 56.59711287 622.31305187 53.7109375 626.51171875 C52.58485742 628.14941969 51.44451774 629.77742151 50.2890625 631.39453125 C40.64375421 644.90232725 32.79124493 659.37423322 25 674 C24.61811523 674.71027344 24.23623047 675.42054688 23.84277344 676.15234375 C18.54433444 686.06137172 14.37903637 696.29003193 10.49951172 706.8371582 C10.1026416 707.87960693 9.70577148 708.92205566 9.296875 709.99609375 C8.94979492 710.93638428 8.60271484 711.8766748 8.24511719 712.84545898 C7 715 7 715 4.85644531 715.81274414 C4.24381836 715.87453857 3.63119141 715.93633301 3 716 C1.54513229 713.09026457 1.87013093 710.53734318 1.8671875 707.2890625 C1.86493668 706.27635788 1.86493668 706.27635788 1.86264038 705.24319458 C1.86027509 703.03707025 1.86656387 700.83110824 1.875 698.625 C1.87721558 697.87126099 1.87943115 697.11752197 1.88171387 696.34094238 C1.95719416 674.5271369 3.69893633 653.59812769 7 632 C7.14808105 631.00097656 7.29616211 630.00195312 7.44873047 628.97265625 C12.97390463 592.1296452 23.91575678 555.43407914 37.83129883 520.93188477 C39.07804377 517.80421398 40.27477866 514.65988627 41.46875 511.51171875 C43.85951609 505.27674891 46.47333064 499.16260917 49.1875 493.0625 C49.6630835 491.98983887 50.13866699 490.91717773 50.62866211 489.81201172 C51.60764412 487.6080446 52.58850905 485.40491287 53.57128906 483.20263672 C54.49009868 481.14300846 55.4063287 479.08222647 56.31933594 477.02001953 C61.70284529 464.86457841 67.45151032 453.00894926 73.76318359 441.30908203 C74.99156066 439.01575588 76.19688291 436.711849 77.39453125 434.40234375 C83.95745459 421.76027675 90.93088447 409.36511406 98 397 C97.67 397 97.34 397 97 397 C96.03191051 398.14087436 95.10645778 399.31797683 94.19921875 400.5078125 C93.35133789 401.61769531 93.35133789 401.61769531 92.48632812 402.75 C91.89271484 403.53375 91.29910156 404.3175 90.6875 405.125 C90.10548828 405.88554687 89.52347656 406.64609375 88.92382812 407.4296875 C86.40234738 410.74216504 83.93689226 414.0377718 81.70703125 417.5546875 C81.14371094 418.36164063 80.58039063 419.16859375 80 420 C79.34 420 78.68 420 78 420 C77.76023437 420.70640625 77.52046875 421.4128125 77.2734375 422.140625 C75.79072165 425.46991336 73.90315039 427.90415518 71.625 430.75 C65.89840239 438.01302772 60.59475521 445.54951361 55.30419922 453.13330078 C54.21997879 454.68514455 53.12848467 456.23190337 52.03515625 457.77734375 C46.86982507 465.08172973 41.92236752 472.53077723 37 480 C36.48066895 480.78793945 35.96133789 481.57587891 35.42626953 482.38769531 C28.36793241 493.11905582 21.52155067 503.93474599 15 515 C14.02242878 516.62596029 13.04340878 518.25105101 12.0625 519.875 C11.59199219 520.66261719 11.12148438 521.45023438 10.63671875 522.26171875 C9.75016389 523.74495253 8.86229753 525.22742067 7.96728516 526.70556641 C0.41728595 539.18498444 -6.37200926 552.01067563 -13 565 C-13.56050049 566.09610596 -13.56050049 566.09610596 -14.13232422 567.21435547 C-16.10282534 571.07895245 -18.03661711 574.96000492 -19.94433594 578.85595703 C-20.68874154 580.36783723 -21.44005004 581.87632822 -22.19628906 583.38232422 C-40.25281692 619.36453553 -53.68762493 657.86794413 -63 697 C-63.22880859 697.92232422 -63.45761719 698.84464844 -63.69335938 699.79492188 C-68.34669495 718.58566406 -70.75018792 737.79554244 -73 757 C-73.11633789 757.9681665 -73.23267578 758.93633301 -73.35253906 759.93383789 C-74.47126118 770.91956884 -74.24312747 782.03259685 -74.25 793.0625 C-74.25100708 794.18115448 -74.25201416 795.29980896 -74.25305176 796.45236206 C-74.24348496 812.1578044 -73.88286143 827.54755531 -71.453125 843.09472656 C-70.98150867 846.11855972 -70.56656429 849.14697102 -70.15625 852.1796875 C-63.99672632 895.80681105 -49.2890382 939.15189575 -28.93408203 978.17871094 C-27.97651379 980.04579382 -27.05994557 981.92847758 -26.15234375 983.8203125 C-19.51771169 997.58459581 -11.56950889 1010.57111305 -3.25 1023.375 C-1.83032029 1025.58139753 -0.41355149 1027.78967135 1 1030 C1.68835938 1031.06605469 2.37671875 1032.13210938 3.0859375 1033.23046875 C9.2190173 1043.2525321 12.57833565 1053.80841669 16 1065 C16.70626787 1067.2827884 17.41333402 1069.56532994 18.12109375 1071.84765625 C19.2550369 1075.50662522 20.38760959 1079.16597102 21.5144043 1082.82714844 C24.14912681 1091.36076232 26.90684955 1099.84619005 29.75 1108.3125 C35.49083222 1125.44369608 35.49083222 1125.44369608 37.0625 1130.3125 C37.44535156 1131.48425781 37.82820313 1132.65601563 38.22265625 1133.86328125 C39.1859639 1137.75039704 39.83693814 1141.32612373 38 1145 C31.01582364 1145.63492512 26.89902325 1144.49742756 21.125 1140.625 C20.37742432 1140.14603271 19.62984863 1139.66706543 18.85961914 1139.17358398 C16.22381145 1137.47234024 13.61213476 1135.73736075 11 1134 C9.37886305 1132.93537645 7.7577102 1131.87077688 6.13609314 1130.80688477 C-4.72732034 1123.67206051 -15.51854862 1116.42273553 -26.1875 1109 C-26.89398682 1108.514104 -27.60047363 1108.02820801 -28.32836914 1107.52758789 C-29.92353045 1106.40374751 -31.46873771 1105.20945963 -33 1104 C-33 1103.34 -33 1102.68 -33 1102 C-34.06347656 1101.64615234 -34.06347656 1101.64615234 -35.1484375 1101.28515625 C-38.50869985 1099.77073664 -40.83297477 1097.84195299 -43.625 1095.4375 C-44.68700281 1094.53066741 -45.74951382 1093.62442968 -46.8125 1092.71875 C-47.61107422 1092.03425781 -47.61107422 1092.03425781 -48.42578125 1091.3359375 C-50.79180708 1089.32804461 -53.20997658 1087.3859848 -55.625 1085.4375 C-60.11798406 1081.77558814 -64.44157108 1077.96250414 -68.7109375 1074.04296875 C-71.03095701 1071.92106808 -71.03095701 1071.92106808 -73.7890625 1069.86328125 C-74.51867187 1069.24839844 -75.24828125 1068.63351562 -76 1068 C-76 1067.34 -76 1066.68 -76 1066 C-76.83724609 1065.65388672 -76.83724609 1065.65388672 -77.69140625 1065.30078125 C-80.61289201 1063.65466491 -82.60054666 1061.58926868 -84.9375 1059.1875 C-86.18853516 1057.90939453 -86.18853516 1057.90939453 -87.46484375 1056.60546875 C-88.30144531 1055.74566406 -89.13804687 1054.88585938 -90 1054 C-92.53785149 1051.45015866 -95.08764256 1048.91352083 -97.6484375 1046.38671875 C-102.33387019 1041.74827464 -106.92787082 1037.09146512 -111.20703125 1032.0703125 C-113.33146824 1029.6172589 -115.54188637 1027.25296853 -117.75 1024.875 C-123.09750826 1019.01471697 -127.96689854 1012.83313537 -132.80273438 1006.54833984 C-133.79974982 1005.25896954 -134.81206527 1003.98144805 -135.828125 1002.70703125 C-162.16816383 969.65411844 -183.9039138 931.43389958 -199 892 C-199.27312012 891.29423828 -199.54624023 890.58847656 -199.82763672 889.86132812 C-211.52986223 859.50096211 -220.22216296 827.59132401 -223.88037109 795.22094727 C-224.1245784 793.06621996 -224.37994138 790.91302729 -224.63671875 788.75976562 C-226.39659613 773.73761551 -227.2109406 758.7480936 -227.1875 743.625 C-227.18689575 742.89122131 -227.1862915 742.15744263 -227.18566895 741.40142822 C-227.1550014 727.52735659 -226.46609539 713.80241159 -225 700 C-224.87109375 698.7713623 -224.7421875 697.54272461 -224.609375 696.27685547 C-220.30060724 656.38584468 -211.21947268 617.47443638 -200 579 C-199.62621675 577.70201025 -199.25252468 576.40399423 -198.87890625 575.10595703 C-195.94067568 564.94868504 -192.74004103 554.89828389 -189.375 544.875 C-189.11910095 544.11007233 -188.8632019 543.34514465 -188.59954834 542.55703735 C-184.86557261 531.40190366 -181.0467782 520.2779933 -177.125 509.1875 C-176.69751465 507.97497559 -176.2700293 506.76245117 -175.82958984 505.51318359 C-173.22930036 498.21845912 -170.44681016 491.01117039 -167.54443359 483.83276367 C-165.97598828 479.95258253 -164.44553871 476.05810237 -162.921875 472.16015625 C-156.89780877 456.77098379 -150.77888231 441.4352617 -144.35253906 426.20849609 C-142.8207742 422.57484018 -141.29644711 418.93811324 -139.7734375 415.30078125 C-137.26712137 409.31549999 -134.75652346 403.33203193 -132.24368286 397.3494873 C-130.70293752 393.67964088 -129.16874661 390.00715035 -127.640625 386.33203125 C-124.53030605 378.86609509 -121.33194143 371.48296764 -117.84960938 364.18041992 C-114.3944643 356.85170324 -111.32261876 349.35822694 -108.18823242 341.88842773 C-105.04391005 334.41428919 -101.78314477 327.00662506 -98.41894531 319.62939453 C-94.77040762 311.58477432 -91.36816075 303.43976421 -87.9519043 295.29443359 C-85.51669179 289.51085753 -83.0173578 283.78733331 -80.3125 278.125 C-77.21580018 271.63455481 -74.53380556 265.01427945 -71.92700195 258.31298828 C-69.87748296 253.07063023 -67.63156749 247.95441572 -65.28125 242.84033203 C-63.08248594 237.966014 -61.07258854 233.01698621 -59.0625 228.0625 C-58.60085449 226.92731934 -58.13920898 225.79213867 -57.66357422 224.62255859 C-51.527369 209.45716325 -45.63520265 194.19492202 -39.74703979 178.93188477 C-39.04965594 177.12841292 -38.34740127 175.32682667 -37.64477539 173.52539062 C-32.70639884 160.82150559 -28.36091486 147.91055833 -24 135 C-23.62907227 133.90478027 -23.25814453 132.80956055 -22.87597656 131.68115234 C-17.37362165 115.32424438 -12.89696579 98.8097725 -9 82 C-8.75620605 80.95424805 -8.51241211 79.90849609 -8.26123047 78.83105469 C-2.24310762 52.64239222 -0.44936725 26.77086781 0 0 Z M100 392 C101 394 101 394 101 394 Z " fill="#066526" transform="translate(295,0)"/>
<path d="M0 0 C0.66 0.33 1.32 0.66 2 1 C-4.45366316 8.23423581 -11.1118974 15.24090268 -17.9375 22.125 C-19.03759399 23.24442993 -19.03759399 23.24442993 -20.15991211 24.38647461 C-20.85866455 25.08651611 -21.55741699 25.78655762 -22.27734375 26.5078125 C-22.89859131 27.13316895 -23.51983887 27.75852539 -24.15991211 28.40283203 C-26.01569366 30.01362185 -27.76101209 31.00963679 -30 32 C-28.71977125 29.19030533 -27.39285871 27.1460762 -25.20263672 24.97558594 C-24.64220673 24.41530701 -24.08177673 23.85502808 -23.50436401 23.277771 C-22.90222076 22.68595032 -22.30007751 22.09412964 -21.6796875 21.484375 C-21.06102814 20.86854553 -20.44236877 20.25271606 -19.80496216 19.6182251 C-17.83296186 17.65739664 -15.85411263 15.70364699 -13.875 13.75 C-12.53469836 12.41973201 -11.19484917 11.089008 -9.85546875 9.7578125 C-6.57553411 6.4998985 -3.28944058 3.24831467 0 0 Z " fill="#B6E153" transform="translate(457,559)"/>
<path d="M0 0 C0.66 0.33 1.32 0.66 2 1 C-3.24778843 7.02523857 -8.69319083 12.82192681 -14.3125 18.5 C-14.91078613 19.11117676 -15.50907227 19.72235352 -16.12548828 20.35205078 C-16.9856958 21.21419189 -16.9856958 21.21419189 -17.86328125 22.09375 C-18.37157471 22.60615234 -18.87986816 23.11855469 -19.40356445 23.64648438 C-21.15681869 25.13295654 -22.91301053 26.05324283 -25 27 C-23.41568547 23.09148801 -20.73364905 20.47632644 -17.7734375 17.578125 C-17.26575836 17.07327576 -16.75807922 16.56842651 -16.23501587 16.04827881 C-14.61966158 14.44407904 -12.99747791 12.84699144 -11.375 11.25 C-10.27558302 10.16061893 -9.17661941 9.0707801 -8.078125 7.98046875 C-5.3906398 5.31498115 -2.69700979 2.65584857 0 0 Z " fill="#BBE35F" transform="translate(651,701)"/>
</svg>
